<?xml version="1.0" encoding="iso-8859-1"?>
<!-- Generator: Adobe Illustrator 19.0.0, SVG Export Plug-In . SVG Version: 6.00 Build 0)  -->
<svg version="1.1" id="Layer_1" xmlns="http://www.w3.org/2000/svg" xmlns:xlink="http://www.w3.org/1999/xlink" x="0px" y="0px"
	 viewBox="0 0 512 512" style="enable-background:new 0 0 512 512;" xml:space="preserve">
<g>
	<path style="fill:#CFDCE5;" d="M503.262,408.841v58.271H383.037v-58.271c0-21.72-17.674-39.394-39.394-39.394h-60.3
		c-18.764,28.296-50.893,46.948-87.382,46.948c-36.501,0-68.618-18.651-87.394-46.948H17.138V249.221h94.584
		c19.09-25.754,49.716-42.451,84.238-42.451s65.135,16.697,84.238,42.451h63.444C431.65,249.221,503.262,320.82,503.262,408.841z"/>
	<path style="fill:#CFDCE5;" d="M166.105,90.347V74.668c0-16.45,13.335-29.786,29.786-29.786l0,0
		c16.45,0,29.786,13.335,29.786,29.786v15.917v59.163v60.384l-59.573-0.051V149.97V90.347H166.105z"/>
</g>
<g>
	<path style="fill:#BAC6CC;" d="M415.442,431.25v35.862h-32.405v-58.271c0-21.72-17.674-39.394-39.394-39.394
		C381.446,363.76,415.442,393.033,415.442,431.25z"/>
	<path style="fill:#BAC6CC;" d="M141.071,311.587c0-49.281,34.02-90.596,79.85-101.797c-8.003-1.957-16.358-3.015-24.963-3.015
		c-57.887,0-104.813,46.926-104.813,104.813c0,7.774,0.872,15.341,2.478,22.632H17.134v35.225h91.433
		c18.769,28.293,50.893,46.956,87.389,46.956c8.605,0,16.96-1.06,24.963-3.015C175.09,402.183,141.071,360.869,141.071,311.587z"/>
	<path style="fill:#BAC6CC;" d="M188.799,210.083V149.97V90.346V74.668c0-12.432,7.618-23.081,18.44-27.544
		c-3.497-1.443-7.328-2.243-11.347-2.243c-16.45,0-29.786,13.335-29.786,29.787v15.678v59.624v60.113l59.573,0.051v-0.019
		L188.799,210.083z"/>
</g>
<path style="fill:#FF6F52;" d="M331.397,64.027c-9.491-0.631-18.517,1.094-26.555,4.645
	c-33.239,14.688-68.814,23.374-105.154,23.374h-5.481c-36.339,0-71.915-8.686-105.154-23.374
	c-8.038-3.552-17.064-5.276-26.555-4.645c-28.703,1.909-51.63,25.812-52.428,54.565c-0.883,31.821,24.649,57.895,56.272,57.895
	c8.681,0,16.9-1.967,24.239-5.476c32.739-15.66,68.951-22.67,105.244-22.67h2.243c36.293,0,72.503,7.01,105.244,22.67
	c7.339,3.511,15.559,5.476,24.239,5.476c31.622,0,57.155-26.074,56.272-57.895C383.024,89.84,360.096,65.936,331.397,64.027z"/>
<path style="fill:#E25749;" d="M58.921,118.587c-0.639,23.023,12.539,43.027,31.841,52.334c-0.063,0.025-0.125,0.063-0.188,0.088
	c-7.34,3.507-15.557,5.474-24.238,5.474c-31.616,0-57.156-26.067-56.267-57.895C10.871,89.84,33.794,65.94,62.491,64.024
	c9.495-0.626,18.526,1.102,26.555,4.647c0.601,0.263,1.202,0.526,1.804,0.789C72.424,78.404,59.51,97.143,58.921,118.587z"/>
<path d="M470.846,298.414c-26.26-30.366-62.416-50.46-101.808-56.581c-5.126-0.798-9.929,2.714-10.726,7.841
	s2.714,9.928,7.841,10.726c34.997,5.438,67.13,23.303,90.479,50.305c23.588,27.275,36.577,62.127,36.577,98.133v48.884H391.777
	v-48.884c0-26.901-21.886-48.786-48.786-48.786h-60.297c-3.149,0-6.088,1.577-7.829,4.201
	c-17.759,26.772-47.503,42.754-79.562,42.754c-32.058,0-61.801-15.983-79.562-42.754c-1.741-2.624-4.68-4.201-7.829-4.201H16.482
	c-5.188,0-9.395,4.206-9.395,9.395c0,5.188,4.206,9.395,9.395,9.395h86.527c21.503,29.498,55.632,46.955,92.296,46.955
	c36.665,0,70.794-17.458,92.296-46.955h55.391c16.541,0,29.997,13.457,29.997,29.997v58.279c0,5.188,4.206,9.395,9.395,9.395
	h120.221c5.188,0,9.395-4.206,9.395-9.395v-58.279C512,368.318,497.384,329.103,470.846,298.414z"/>
<path d="M65.689,185.882c9.901,0,19.419-2.152,28.293-6.397c19.202-9.185,39.979-15.476,62.077-18.845v43.767
	c-19.229,7.071-36.487,19.236-49.592,35.42H16.482c-5.188,0-9.395,4.206-9.395,9.395s4.206,9.395,9.395,9.395h94.587
	c2.975,0,5.773-1.409,7.546-3.799c18.215-24.562,46.167-38.649,76.691-38.649s58.477,14.087,76.691,38.649
	c1.772,2.39,4.571,3.799,7.546,3.799h51.329c5.188,0,9.395-4.206,9.395-9.395s-4.206-9.395-9.395-9.395h-46.727
	c-13.134-16.221-30.441-28.405-49.723-35.469v-24.829c0-5.188-4.206-9.395-9.395-9.395s-9.395,4.206-9.395,9.395v19.707
	c-6.664-1.218-13.463-1.856-20.326-1.856c-6.908,0-13.752,0.648-20.458,1.881v-40.766c6.67-0.506,13.445-0.76,20.325-0.76h2.243
	c36.973,0,71.018,7.318,101.189,21.75c8.873,4.245,18.393,6.397,28.293,6.397c17.892,0,34.616-7.065,47.093-19.893
	c12.472-12.824,19.067-29.749,18.57-47.658c-0.929-33.487-27.809-61.458-61.194-63.677c-10.632-0.708-21.343,1.17-30.976,5.426
	c-21.991,9.716-44.067,16.305-65.972,19.75V74.67c0-21.605-17.577-39.18-39.18-39.18s-39.18,17.577-39.18,39.18v4.836
	c-21.213-3.53-42.579-10.02-63.863-19.425c-9.634-4.256-20.342-6.133-30.976-5.426c-5.177,0.344-9.095,4.82-8.751,9.997
	c0.344,5.177,4.833,9.094,9.997,8.751c7.72-0.512,15.169,0.787,22.135,3.864c36.303,16.041,72.959,24.174,108.95,24.174h5.481
	c35.992,0,72.649-8.133,108.952-24.174c6.966-3.079,14.416-4.379,22.135-3.864c23.817,1.583,42.994,21.549,43.658,45.451
	c0.356,12.794-4.353,24.882-13.256,34.037c-8.909,9.159-20.85,14.203-33.624,14.203c-7.072,0-13.863-1.533-20.186-4.557
	c-32.723-15.654-69.496-23.59-109.297-23.59h-2.243c-39.8,0-76.574,7.937-109.297,23.59c-6.322,3.024-13.114,4.557-20.186,4.557
	c-12.774,0-24.714-5.044-33.624-14.203c-8.904-9.155-13.613-21.243-13.258-34.037c0.341-12.277,5.486-23.803,14.489-32.458
	c3.74-3.596,3.858-9.544,0.262-13.284c-3.596-3.74-9.544-3.858-13.284-0.262C7.696,84.942,0.505,101.095,0.026,118.332
	c-0.497,17.91,6.098,34.835,18.571,47.659C31.073,178.819,47.798,185.882,65.689,185.882z M193.553,82.652
	c-6.212,0-12.448-0.266-18.705-0.79V74.67c0-11.245,9.148-20.391,20.391-20.391c11.243,0,20.391,9.148,20.391,20.391v7.342
	c-5.549,0.413-11.083,0.641-16.597,0.641C199.033,82.652,193.553,82.652,193.553,82.652z"/>
<g>
</g>
<g>
</g>
<g>
</g>
<g>
</g>
<g>
</g>
<g>
</g>
<g>
</g>
<g>
</g>
<g>
</g>
<g>
</g>
<g>
</g>
<g>
</g>
<g>
</g>
<g>
</g>
<g>
</g>
</svg>
